# xmcd CD database file
#
# Track frame offsets:
#	150
#	10209
#	22224
#	30794
#	45030
#	59041
#	73119
#	89768
#	104454
#	119338
#	132347
#	142406
#	154421
#	162991
#	177227
#	191238
#	205316
#	221965
#	236651
#	251535
#
# Disc length: 3525 seconds
#
# Revision: 0
# Processed by: cddbd v1.5.2PL0 Copyright (c) Steve Scherf et al.
# Submitted via: CDex 1.51
#
DISCID=350dc314
DTITLE=Wise Publications - Sing Along Blues
DYEAR=1900
DGENRE=Blues
TTITLE0=Baby what you want me to do
TTITLE1=Call it stormy monday
TTITLE2=Hi-heel sneakers
TTITLE3=I'd rather go blind
TTITLE4=The lady sings the blues
TTITLE5=Please send me someone to love
TTITLE6=Need your love so bad
TTITLE7=Sweet home chicago
TTITLE8=The thrill is gone
TTITLE9=Wang dang doodle
TTITLE10=Baby what you want me to do - track
TTITLE11=Call it stormy monday - track
TTITLE12=Hi-heel sneakers - track
TTITLE13=I'd rather go blind - track
TTITLE14=The lady sings the blues - track
TTITLE15=Please send me someone to love - track
TTITLE16=Need your love so bad - track
TTITLE17=Sweet home chicago - track
TTITLE18=The thrill is gone - track
TTITLE19=Wang dang doodle - track
EXTD=
EXTT0=
EXTT1=
EXTT2=
EXTT3=
EXTT4=
EXTT5=
EXTT6=
EXTT7=
EXTT8=
EXTT9=
EXTT10=
EXTT11=
EXTT12=
EXTT13=
EXTT14=
EXTT15=
EXTT16=
EXTT17=
EXTT18=
EXTT19=
PLAYORDER=
